<svg width="267" height="31" viewBox="0 0 267 31" fill="none" xmlns="http://www.w3.org/2000/svg">
<path d="M33.51 3L26.55 24H22.41L17.22 8.46L11.94 24H7.77L0.81 3H4.86L10.08 18.96L15.51 3H19.11L24.42 19.05L29.79 3H33.51ZM50.186 16.08C50.186 16.34 50.166 16.71 50.126 17.19H37.556C37.776 18.37 38.346 19.31 39.266 20.01C40.206 20.69 41.366 21.03 42.746 21.03C44.506 21.03 45.956 20.45 47.096 19.29L49.106 21.6C48.386 22.46 47.476 23.11 46.376 23.55C45.276 23.99 44.036 24.21 42.656 24.21C40.896 24.21 39.346 23.86 38.006 23.16C36.666 22.46 35.626 21.49 34.886 20.25C34.166 18.99 33.806 17.57 33.806 15.99C33.806 14.43 34.156 13.03 34.856 11.79C35.576 10.53 36.566 9.55 37.826 8.85C39.086 8.15 40.506 7.8 42.086 7.8C43.646 7.8 45.036 8.15 46.256 8.85C47.496 9.53 48.456 10.5 49.136 11.76C49.836 13 50.186 14.44 50.186 16.08ZM42.086 10.8C40.886 10.8 39.866 11.16 39.026 11.88C38.206 12.58 37.706 13.52 37.526 14.7H46.616C46.456 13.54 45.966 12.6 45.146 11.88C44.326 11.16 43.306 10.8 42.086 10.8ZM62.6681 7.8C64.2281 7.8 65.6181 8.14 66.8381 8.82C68.0781 9.5 69.0481 10.46 69.7481 11.7C70.4481 12.94 70.7981 14.37 70.7981 15.99C70.7981 17.61 70.4481 19.05 69.7481 20.31C69.0481 21.55 68.0781 22.51 66.8381 23.19C65.6181 23.87 64.2281 24.21 62.6681 24.21C61.5681 24.21 60.5581 24.02 59.6381 23.64C58.7381 23.26 57.9781 22.69 57.3581 21.93V24H53.7881V1.74H57.5381V9.93C58.1781 9.23 58.9281 8.7 59.7881 8.34C60.6681 7.98 61.6281 7.8 62.6681 7.8ZM62.2481 21C63.6281 21 64.7581 20.54 65.6381 19.62C66.5381 18.7 66.9881 17.49 66.9881 15.99C66.9881 14.49 66.5381 13.28 65.6381 12.36C64.7581 11.44 63.6281 10.98 62.2481 10.98C61.3481 10.98 60.5381 11.19 59.8181 11.61C59.0981 12.01 58.5281 12.59 58.1081 13.35C57.6881 14.11 57.4781 14.99 57.4781 15.99C57.4781 16.99 57.6881 17.87 58.1081 18.63C58.5281 19.39 59.0981 19.98 59.8181 20.4C60.5381 20.8 61.3481 21 62.2481 21ZM96.6255 19.14H86.1255L84.0555 24H80.0355L89.4855 3H93.3255L102.806 24H98.7255L96.6255 19.14ZM95.3355 16.08L91.3755 6.9L87.4455 16.08H95.3355ZM109.92 24.21C108.62 24.21 107.35 24.04 106.11 23.7C104.87 23.36 103.88 22.93 103.14 22.41L104.58 19.56C105.3 20.04 106.16 20.43 107.16 20.73C108.18 21.01 109.18 21.15 110.16 21.15C112.4 21.15 113.52 20.56 113.52 19.38C113.52 18.82 113.23 18.43 112.65 18.21C112.09 17.99 111.18 17.78 109.92 17.58C108.6 17.38 107.52 17.15 106.68 16.89C105.86 16.63 105.14 16.18 104.52 15.54C103.92 14.88 103.62 13.97 103.62 12.81C103.62 11.29 104.25 10.08 105.51 9.18C106.79 8.26 108.51 7.8 110.67 7.8C111.77 7.8 112.87 7.93 113.97 8.19C115.07 8.43 115.97 8.76 116.67 9.18L115.23 12.03C113.87 11.23 112.34 10.83 110.64 10.83C109.54 10.83 108.7 11 108.12 11.34C107.56 11.66 107.28 12.09 107.28 12.63C107.28 13.23 107.58 13.66 108.18 13.92C108.8 14.16 109.75 14.39 111.03 14.61C112.31 14.81 113.36 15.04 114.18 15.3C115 15.56 115.7 16 116.28 16.62C116.88 17.24 117.18 18.12 117.18 19.26C117.18 20.76 116.53 21.96 115.23 22.86C113.93 23.76 112.16 24.21 109.92 24.21ZM125.359 24.21C124.059 24.21 122.789 24.04 121.549 23.7C120.309 23.36 119.319 22.93 118.579 22.41L120.019 19.56C120.739 20.04 121.599 20.43 122.599 20.73C123.619 21.01 124.619 21.15 125.599 21.15C127.839 21.15 128.959 20.56 128.959 19.38C128.959 18.82 128.669 18.43 128.089 18.21C127.529 17.99 126.619 17.78 125.359 17.58C124.039 17.38 122.959 17.15 122.119 16.89C121.299 16.63 120.579 16.18 119.959 15.54C119.359 14.88 119.059 13.97 119.059 12.81C119.059 11.29 119.689 10.08 120.949 9.18C122.229 8.26 123.949 7.8 126.109 7.8C127.209 7.8 128.309 7.93 129.409 8.19C130.509 8.43 131.409 8.76 132.109 9.18L130.669 12.03C129.309 11.23 127.779 10.83 126.079 10.83C124.979 10.83 124.139 11 123.559 11.34C122.999 11.66 122.719 12.09 122.719 12.63C122.719 13.23 123.019 13.66 123.619 13.92C124.239 14.16 125.189 14.39 126.469 14.61C127.749 14.81 128.799 15.04 129.619 15.3C130.439 15.56 131.139 16 131.719 16.62C132.319 17.24 132.619 18.12 132.619 19.26C132.619 20.76 131.969 21.96 130.669 22.86C129.369 23.76 127.599 24.21 125.359 24.21ZM135.849 7.98H139.599V24H135.849V7.98ZM137.739 5.34C137.059 5.34 136.489 5.13 136.029 4.71C135.569 4.27 135.339 3.73 135.339 3.09C135.339 2.45 135.569 1.92 136.029 1.5C136.489 1.06 137.059 0.84 137.739 0.84C138.419 0.84 138.989 1.05 139.449 1.47C139.909 1.87 140.139 2.38 140.139 3C140.139 3.66 139.909 4.22 139.449 4.68C139.009 5.12 138.439 5.34 137.739 5.34ZM160.421 7.98V21.57C160.421 27.21 157.541 30.03 151.781 30.03C150.241 30.03 148.781 29.83 147.401 29.43C146.021 29.05 144.881 28.49 143.981 27.75L145.661 24.93C146.361 25.51 147.241 25.97 148.301 26.31C149.381 26.67 150.471 26.85 151.571 26.85C153.331 26.85 154.621 26.45 155.441 25.65C156.261 24.85 156.671 23.63 156.671 21.99V21.15C156.031 21.85 155.251 22.38 154.331 22.74C153.411 23.1 152.401 23.28 151.301 23.28C149.781 23.28 148.401 22.96 147.161 22.32C145.941 21.66 144.971 20.74 144.251 19.56C143.551 18.38 143.201 17.03 143.201 15.51C143.201 13.99 143.551 12.65 144.251 11.49C144.971 10.31 145.941 9.4 147.161 8.76C148.401 8.12 149.781 7.8 151.301 7.8C152.461 7.8 153.511 7.99 154.451 8.37C155.411 8.75 156.211 9.33 156.851 10.11V7.98H160.421ZM151.871 20.1C153.291 20.1 154.451 19.68 155.351 18.84C156.271 17.98 156.731 16.87 156.731 15.51C156.731 14.17 156.271 13.08 155.351 12.24C154.451 11.4 153.291 10.98 151.871 10.98C150.431 10.98 149.251 11.4 148.331 12.24C147.431 13.08 146.981 14.17 146.981 15.51C146.981 16.87 147.431 17.98 148.331 18.84C149.251 19.68 150.431 20.1 151.871 20.1ZM174.441 7.8C176.461 7.8 178.081 8.39 179.301 9.57C180.521 10.75 181.131 12.5 181.131 14.82V24H177.381V15.3C177.381 13.9 177.051 12.85 176.391 12.15C175.731 11.43 174.791 11.07 173.571 11.07C172.191 11.07 171.101 11.49 170.301 12.33C169.501 13.15 169.101 14.34 169.101 15.9V24H165.351V7.98H168.921V10.05C169.541 9.31 170.321 8.75 171.261 8.37C172.201 7.99 173.261 7.8 174.441 7.8ZM206.108 7.8C208.128 7.8 209.728 8.39 210.908 9.57C212.088 10.73 212.678 12.48 212.678 14.82V24H208.928V15.3C208.928 13.9 208.618 12.85 207.998 12.15C207.378 11.43 206.488 11.07 205.328 11.07C204.068 11.07 203.058 11.49 202.298 12.33C201.538 13.15 201.158 14.33 201.158 15.87V24H197.408V15.3C197.408 13.9 197.098 12.85 196.478 12.15C195.858 11.43 194.968 11.07 193.808 11.07C192.528 11.07 191.508 11.48 190.748 12.3C190.008 13.12 189.638 14.31 189.638 15.87V24H185.888V7.98H189.458V10.02C190.058 9.3 190.808 8.75 191.708 8.37C192.608 7.99 193.608 7.8 194.708 7.8C195.908 7.8 196.968 8.03 197.888 8.49C198.828 8.93 199.568 9.59 200.108 10.47C200.768 9.63 201.618 8.98 202.658 8.52C203.698 8.04 204.848 7.8 206.108 7.8ZM232.676 16.08C232.676 16.34 232.656 16.71 232.616 17.19H220.046C220.266 18.37 220.836 19.31 221.756 20.01C222.696 20.69 223.856 21.03 225.236 21.03C226.996 21.03 228.446 20.45 229.586 19.29L231.596 21.6C230.876 22.46 229.966 23.11 228.866 23.55C227.766 23.99 226.526 24.21 225.146 24.21C223.386 24.21 221.836 23.86 220.496 23.16C219.156 22.46 218.116 21.49 217.376 20.25C216.656 18.99 216.296 17.57 216.296 15.99C216.296 14.43 216.646 13.03 217.346 11.79C218.066 10.53 219.056 9.55 220.316 8.85C221.576 8.15 222.996 7.8 224.576 7.8C226.136 7.8 227.526 8.15 228.746 8.85C229.986 9.53 230.946 10.5 231.626 11.76C232.326 13 232.676 14.44 232.676 16.08ZM224.576 10.8C223.376 10.8 222.356 11.16 221.516 11.88C220.696 12.58 220.196 13.52 220.016 14.7H229.106C228.946 13.54 228.456 12.6 227.636 11.88C226.816 11.16 225.796 10.8 224.576 10.8ZM245.368 7.8C247.388 7.8 249.008 8.39 250.228 9.57C251.448 10.75 252.058 12.5 252.058 14.82V24H248.308V15.3C248.308 13.9 247.978 12.85 247.318 12.15C246.658 11.43 245.718 11.07 244.498 11.07C243.118 11.07 242.028 11.49 241.228 12.33C240.428 13.15 240.028 14.34 240.028 15.9V24H236.278V7.98H239.848V10.05C240.468 9.31 241.248 8.75 242.188 8.37C243.128 7.99 244.188 7.8 245.368 7.8ZM266.445 23.13C266.005 23.49 265.465 23.76 264.825 23.94C264.205 24.12 263.545 24.21 262.845 24.21C261.085 24.21 259.725 23.75 258.765 22.83C257.805 21.91 257.325 20.57 257.325 18.81V11.1H254.685V8.1H257.325V4.44H261.075V8.1H265.365V11.1H261.075V18.72C261.075 19.5 261.265 20.1 261.645 20.52C262.025 20.92 262.575 21.12 263.295 21.12C264.135 21.12 264.835 20.9 265.395 20.46L266.445 23.13Z" fill="black"/>
</svg>
